<mxfile host="app.diagrams.net" modified="2020-04-18T10:56:26.004Z" agent="5.0 (Windows NT 10.0; WOW64) AppleWebKit/537.36 (KHTML, like Gecko) Chrome/70.0.3538.25 Safari/537.36 Core/1.70.3756.400 QQBrowser/10.5.4039.400" etag="lFuJZNH3GTLIjclk_QI8" version="12.9.14" type="github">
  <diagram name="Page-1" id="822b0af5-4adb-64df-f703-e8dfc1f81529">
    <mxGraphModel dx="2021" dy="1131" grid="1" gridSize="10" guides="1" tooltips="1" connect="1" arrows="1" fold="1" page="1" pageScale="1" pageWidth="3300" pageHeight="2339" background="#ffffff" math="0" shadow="0">
      <root>
        <mxCell id="0" />
        <mxCell id="1" parent="0" />
        <mxCell id="wdB7McpbQnSKonyvfbZ4-52" value="业务线" style="rounded=0;whiteSpace=wrap;html=1;align=left;" vertex="1" parent="1">
          <mxGeometry x="670" y="40" width="730" height="130" as="geometry" />
        </mxCell>
        <mxCell id="wdB7McpbQnSKonyvfbZ4-31" value="" style="rounded=0;whiteSpace=wrap;html=1;" vertex="1" parent="1">
          <mxGeometry x="1770" y="555" width="470" height="80" as="geometry" />
        </mxCell>
        <mxCell id="VvI8yXbkPYTi_8kJMqFg-1" value="redis（key:phone_xx_store_01）" style="rounded=0;whiteSpace=wrap;html=1;align=left;" parent="1" vertex="1">
          <mxGeometry x="1630" y="290" width="270" height="60" as="geometry" />
        </mxCell>
        <mxCell id="VvI8yXbkPYTi_8kJMqFg-2" style="edgeStyle=orthogonalEdgeStyle;rounded=0;orthogonalLoop=1;jettySize=auto;html=1;exitX=0.5;exitY=1;exitDx=0;exitDy=0;" parent="1" source="VvI8yXbkPYTi_8kJMqFg-3" target="VvI8yXbkPYTi_8kJMqFg-8" edge="1">
          <mxGeometry relative="1" as="geometry" />
        </mxCell>
        <mxCell id="VvI8yXbkPYTi_8kJMqFg-3" value="会员业务" style="ellipse;whiteSpace=wrap;html=1;aspect=fixed;align=center;" parent="1" vertex="1">
          <mxGeometry x="720" y="70" width="80" height="80" as="geometry" />
        </mxCell>
        <mxCell id="VvI8yXbkPYTi_8kJMqFg-4" style="edgeStyle=orthogonalEdgeStyle;rounded=0;orthogonalLoop=1;jettySize=auto;html=1;exitX=0.5;exitY=1;exitDx=0;exitDy=0;entryX=0.5;entryY=0;entryDx=0;entryDy=0;" parent="1" source="VvI8yXbkPYTi_8kJMqFg-5" target="VvI8yXbkPYTi_8kJMqFg-8" edge="1">
          <mxGeometry relative="1" as="geometry" />
        </mxCell>
        <mxCell id="VvI8yXbkPYTi_8kJMqFg-5" value="页游业务" style="ellipse;whiteSpace=wrap;html=1;aspect=fixed;align=center;" parent="1" vertex="1">
          <mxGeometry x="1000" y="70" width="80" height="80" as="geometry" />
        </mxCell>
        <mxCell id="VvI8yXbkPYTi_8kJMqFg-6" style="edgeStyle=orthogonalEdgeStyle;rounded=0;orthogonalLoop=1;jettySize=auto;html=1;exitX=0.5;exitY=1;exitDx=0;exitDy=0;" parent="1" source="VvI8yXbkPYTi_8kJMqFg-7" edge="1">
          <mxGeometry relative="1" as="geometry">
            <mxPoint x="1040" y="210" as="targetPoint" />
          </mxGeometry>
        </mxCell>
        <mxCell id="VvI8yXbkPYTi_8kJMqFg-7" value="直播业务" style="ellipse;whiteSpace=wrap;html=1;aspect=fixed;align=center;" parent="1" vertex="1">
          <mxGeometry x="1280" y="70" width="80" height="80" as="geometry" />
        </mxCell>
        <mxCell id="VvI8yXbkPYTi_8kJMqFg-8" value="nginx集群" style="rounded=1;whiteSpace=wrap;html=1;align=left;" parent="1" vertex="1">
          <mxGeometry x="690" y="210" width="700" height="60" as="geometry" />
        </mxCell>
        <mxCell id="VvI8yXbkPYTi_8kJMqFg-9" style="edgeStyle=orthogonalEdgeStyle;rounded=0;orthogonalLoop=1;jettySize=auto;html=1;entryX=0.5;entryY=0;entryDx=0;entryDy=0;" parent="1" source="VvI8yXbkPYTi_8kJMqFg-10" target="VvI8yXbkPYTi_8kJMqFg-46" edge="1">
          <mxGeometry relative="1" as="geometry" />
        </mxCell>
        <mxCell id="VvI8yXbkPYTi_8kJMqFg-10" value="nginx" style="rounded=1;whiteSpace=wrap;html=1;align=center;" parent="1" vertex="1">
          <mxGeometry x="750" y="220" width="80" height="40" as="geometry" />
        </mxCell>
        <mxCell id="VvI8yXbkPYTi_8kJMqFg-11" style="edgeStyle=orthogonalEdgeStyle;rounded=0;orthogonalLoop=1;jettySize=auto;html=1;exitX=0.5;exitY=1;exitDx=0;exitDy=0;" parent="1" source="VvI8yXbkPYTi_8kJMqFg-12" edge="1">
          <mxGeometry relative="1" as="geometry">
            <mxPoint x="810" y="330" as="targetPoint" />
          </mxGeometry>
        </mxCell>
        <mxCell id="VvI8yXbkPYTi_8kJMqFg-12" value="nginx" style="rounded=1;whiteSpace=wrap;html=1;align=center;" parent="1" vertex="1">
          <mxGeometry x="930" y="220" width="80" height="40" as="geometry" />
        </mxCell>
        <mxCell id="VvI8yXbkPYTi_8kJMqFg-13" style="edgeStyle=orthogonalEdgeStyle;rounded=0;orthogonalLoop=1;jettySize=auto;html=1;exitX=0.5;exitY=1;exitDx=0;exitDy=0;" parent="1" source="VvI8yXbkPYTi_8kJMqFg-14" target="VvI8yXbkPYTi_8kJMqFg-55" edge="1">
          <mxGeometry relative="1" as="geometry" />
        </mxCell>
        <mxCell id="VvI8yXbkPYTi_8kJMqFg-14" value="nginx" style="rounded=1;whiteSpace=wrap;html=1;align=center;" parent="1" vertex="1">
          <mxGeometry x="1105" y="220" width="80" height="40" as="geometry" />
        </mxCell>
        <mxCell id="VvI8yXbkPYTi_8kJMqFg-15" value="nginx" style="rounded=1;whiteSpace=wrap;html=1;align=center;" parent="1" vertex="1">
          <mxGeometry x="1280" y="220" width="80" height="40" as="geometry" />
        </mxCell>
        <mxCell id="VvI8yXbkPYTi_8kJMqFg-16" value="zuul集群" style="rounded=1;whiteSpace=wrap;html=1;align=left;" parent="1" vertex="1">
          <mxGeometry x="1810" y="210" width="700" height="60" as="geometry" />
        </mxCell>
        <mxCell id="VvI8yXbkPYTi_8kJMqFg-17" style="edgeStyle=orthogonalEdgeStyle;rounded=0;orthogonalLoop=1;jettySize=auto;html=1;exitX=0.5;exitY=1;exitDx=0;exitDy=0;" parent="1" source="VvI8yXbkPYTi_8kJMqFg-18" edge="1">
          <mxGeometry relative="1" as="geometry">
            <mxPoint x="1270" y="330" as="targetPoint" />
          </mxGeometry>
        </mxCell>
        <mxCell id="VvI8yXbkPYTi_8kJMqFg-18" value="nginx" style="rounded=1;whiteSpace=wrap;html=1;align=center;" parent="1" vertex="1">
          <mxGeometry x="1280" y="220" width="80" height="40" as="geometry" />
        </mxCell>
        <mxCell id="VvI8yXbkPYTi_8kJMqFg-19" value="zuul" style="rounded=1;whiteSpace=wrap;html=1;align=center;" parent="1" vertex="1">
          <mxGeometry x="2050" y="220" width="80" height="40" as="geometry" />
        </mxCell>
        <mxCell id="VvI8yXbkPYTi_8kJMqFg-20" value="zuul" style="rounded=1;whiteSpace=wrap;html=1;align=center;" parent="1" vertex="1">
          <mxGeometry x="2225" y="220" width="80" height="40" as="geometry" />
        </mxCell>
        <mxCell id="VvI8yXbkPYTi_8kJMqFg-21" value="zuul" style="rounded=1;whiteSpace=wrap;html=1;align=center;" parent="1" vertex="1">
          <mxGeometry x="2400" y="220" width="80" height="40" as="geometry" />
        </mxCell>
        <mxCell id="wdB7McpbQnSKonyvfbZ4-32" style="edgeStyle=none;rounded=0;orthogonalLoop=1;jettySize=auto;html=1;entryX=0;entryY=0.5;entryDx=0;entryDy=0;" edge="1" parent="1" source="VvI8yXbkPYTi_8kJMqFg-22" target="wdB7McpbQnSKonyvfbZ4-31">
          <mxGeometry relative="1" as="geometry" />
        </mxCell>
        <mxCell id="wdB7McpbQnSKonyvfbZ4-49" style="edgeStyle=none;rounded=0;orthogonalLoop=1;jettySize=auto;html=1;exitX=1;exitY=1;exitDx=0;exitDy=0;entryX=0;entryY=0.5;entryDx=0;entryDy=0;dashed=1;dashPattern=1 2;" edge="1" parent="1" source="VvI8yXbkPYTi_8kJMqFg-22" target="wdB7McpbQnSKonyvfbZ4-47">
          <mxGeometry relative="1" as="geometry">
            <Array as="points">
              <mxPoint x="1500" y="690" />
            </Array>
          </mxGeometry>
        </mxCell>
        <mxCell id="wdB7McpbQnSKonyvfbZ4-53" value="支付结果" style="edgeLabel;html=1;align=center;verticalAlign=middle;resizable=0;points=[];" vertex="1" connectable="0" parent="wdB7McpbQnSKonyvfbZ4-49">
          <mxGeometry x="-0.0667" y="17" relative="1" as="geometry">
            <mxPoint x="17" y="18" as="offset" />
          </mxGeometry>
        </mxCell>
        <mxCell id="VvI8yXbkPYTi_8kJMqFg-22" value="支付网关" style="rounded=1;whiteSpace=wrap;html=1;align=left;" parent="1" vertex="1">
          <mxGeometry x="560" y="560" width="940" height="60" as="geometry" />
        </mxCell>
        <mxCell id="wdB7McpbQnSKonyvfbZ4-15" style="edgeStyle=none;rounded=0;orthogonalLoop=1;jettySize=auto;html=1;exitX=0.5;exitY=1;exitDx=0;exitDy=0;entryX=0.5;entryY=0;entryDx=0;entryDy=0;" edge="1" parent="1" source="VvI8yXbkPYTi_8kJMqFg-23" target="VvI8yXbkPYTi_8kJMqFg-81">
          <mxGeometry relative="1" as="geometry" />
        </mxCell>
        <mxCell id="VvI8yXbkPYTi_8kJMqFg-23" value="支付网关微服务" style="rounded=1;whiteSpace=wrap;html=1;align=center;" parent="1" vertex="1">
          <mxGeometry x="660" y="570" width="90" height="40" as="geometry" />
        </mxCell>
        <mxCell id="wdB7McpbQnSKonyvfbZ4-16" style="edgeStyle=none;rounded=0;orthogonalLoop=1;jettySize=auto;html=1;exitX=0.5;exitY=1;exitDx=0;exitDy=0;" edge="1" parent="1" source="VvI8yXbkPYTi_8kJMqFg-24">
          <mxGeometry relative="1" as="geometry">
            <mxPoint x="810" y="680" as="targetPoint" />
          </mxGeometry>
        </mxCell>
        <mxCell id="VvI8yXbkPYTi_8kJMqFg-24" value="支付网关微服务" style="rounded=1;whiteSpace=wrap;html=1;align=center;" parent="1" vertex="1">
          <mxGeometry x="870" y="570" width="90" height="40" as="geometry" />
        </mxCell>
        <mxCell id="wdB7McpbQnSKonyvfbZ4-17" style="edgeStyle=none;rounded=0;orthogonalLoop=1;jettySize=auto;html=1;exitX=0.5;exitY=1;exitDx=0;exitDy=0;entryX=0.5;entryY=0;entryDx=0;entryDy=0;" edge="1" parent="1" source="VvI8yXbkPYTi_8kJMqFg-25" target="VvI8yXbkPYTi_8kJMqFg-92">
          <mxGeometry relative="1" as="geometry" />
        </mxCell>
        <mxCell id="VvI8yXbkPYTi_8kJMqFg-25" value="支付网关微服务" style="rounded=1;whiteSpace=wrap;html=1;align=center;" parent="1" vertex="1">
          <mxGeometry x="1120" y="570" width="90" height="40" as="geometry" />
        </mxCell>
        <mxCell id="VvI8yXbkPYTi_8kJMqFg-27" style="edgeStyle=orthogonalEdgeStyle;rounded=0;orthogonalLoop=1;jettySize=auto;html=1;exitX=0.5;exitY=1;exitDx=0;exitDy=0;entryX=0.5;entryY=0;entryDx=0;entryDy=0;" parent="1" source="VvI8yXbkPYTi_8kJMqFg-31" target="VvI8yXbkPYTi_8kJMqFg-23" edge="1" treatAsSingle="0">
          <mxGeometry relative="1" as="geometry">
            <Array as="points">
              <mxPoint x="705" y="570" />
            </Array>
          </mxGeometry>
        </mxCell>
        <mxCell id="VvI8yXbkPYTi_8kJMqFg-28" value="主" style="edgeLabel;html=1;align=center;verticalAlign=middle;resizable=0;points=[];" parent="VvI8yXbkPYTi_8kJMqFg-27" vertex="1" connectable="0">
          <mxGeometry x="-0.2667" y="2" relative="1" as="geometry">
            <mxPoint as="offset" />
          </mxGeometry>
        </mxCell>
        <mxCell id="VvI8yXbkPYTi_8kJMqFg-29" style="rounded=0;orthogonalLoop=1;jettySize=auto;html=1;dashed=1;entryX=0.5;entryY=0;entryDx=0;entryDy=0;exitX=0.5;exitY=1;exitDx=0;exitDy=0;" parent="1" source="VvI8yXbkPYTi_8kJMqFg-31" target="VvI8yXbkPYTi_8kJMqFg-24" edge="1" treatAsSingle="0">
          <mxGeometry relative="1" as="geometry" />
        </mxCell>
        <mxCell id="VvI8yXbkPYTi_8kJMqFg-30" value="从" style="edgeLabel;html=1;align=center;verticalAlign=middle;resizable=0;points=[];" parent="VvI8yXbkPYTi_8kJMqFg-29" vertex="1" connectable="0">
          <mxGeometry x="-0.5299" y="-1" relative="1" as="geometry">
            <mxPoint as="offset" />
          </mxGeometry>
        </mxCell>
        <mxCell id="VvI8yXbkPYTi_8kJMqFg-31" value="" style="rounded=0;whiteSpace=wrap;html=1;align=left;" parent="1" vertex="1">
          <mxGeometry x="620" y="380" width="170" height="100" as="geometry" />
        </mxCell>
        <mxCell id="VvI8yXbkPYTi_8kJMqFg-32" value="Keepalived&amp;nbsp;主" style="rounded=1;whiteSpace=wrap;html=1;align=center;" parent="1" vertex="1">
          <mxGeometry x="645" y="390" width="120" height="30" as="geometry" />
        </mxCell>
        <mxCell id="VvI8yXbkPYTi_8kJMqFg-33" value="HAproxy&amp;nbsp;主" style="rounded=1;whiteSpace=wrap;html=1;align=center;" parent="1" vertex="1">
          <mxGeometry x="645" y="440" width="120" height="30" as="geometry" />
        </mxCell>
        <mxCell id="VvI8yXbkPYTi_8kJMqFg-34" style="edgeStyle=orthogonalEdgeStyle;rounded=0;orthogonalLoop=1;jettySize=auto;html=1;exitX=0.5;exitY=1;exitDx=0;exitDy=0;" parent="1" source="VvI8yXbkPYTi_8kJMqFg-38" target="VvI8yXbkPYTi_8kJMqFg-24" edge="1" treatAsSingle="0">
          <mxGeometry relative="1" as="geometry" />
        </mxCell>
        <mxCell id="VvI8yXbkPYTi_8kJMqFg-35" value="主" style="edgeLabel;html=1;align=center;verticalAlign=middle;resizable=0;points=[];" parent="VvI8yXbkPYTi_8kJMqFg-34" vertex="1" connectable="0">
          <mxGeometry x="-0.2889" y="1" relative="1" as="geometry">
            <mxPoint as="offset" />
          </mxGeometry>
        </mxCell>
        <mxCell id="VvI8yXbkPYTi_8kJMqFg-36" style="edgeStyle=none;rounded=0;orthogonalLoop=1;jettySize=auto;html=1;exitX=0.5;exitY=1;exitDx=0;exitDy=0;entryX=0.5;entryY=0;entryDx=0;entryDy=0;dashed=1;" parent="1" source="VvI8yXbkPYTi_8kJMqFg-38" target="VvI8yXbkPYTi_8kJMqFg-23" edge="1" treatAsSingle="0">
          <mxGeometry relative="1" as="geometry" />
        </mxCell>
        <mxCell id="VvI8yXbkPYTi_8kJMqFg-37" value="从" style="edgeLabel;html=1;align=center;verticalAlign=middle;resizable=0;points=[];" parent="VvI8yXbkPYTi_8kJMqFg-36" vertex="1" connectable="0">
          <mxGeometry x="-0.5547" y="1" relative="1" as="geometry">
            <mxPoint as="offset" />
          </mxGeometry>
        </mxCell>
        <mxCell id="VvI8yXbkPYTi_8kJMqFg-38" value="" style="rounded=0;whiteSpace=wrap;html=1;align=left;" parent="1" vertex="1">
          <mxGeometry x="830" y="380" width="170" height="100" as="geometry" />
        </mxCell>
        <mxCell id="VvI8yXbkPYTi_8kJMqFg-39" value="Keepalived&amp;nbsp;备" style="rounded=1;whiteSpace=wrap;html=1;align=center;" parent="1" vertex="1">
          <mxGeometry x="855" y="390" width="120" height="30" as="geometry" />
        </mxCell>
        <mxCell id="VvI8yXbkPYTi_8kJMqFg-40" value="HAproxy&amp;nbsp;备" style="rounded=1;whiteSpace=wrap;html=1;align=center;" parent="1" vertex="1">
          <mxGeometry x="855" y="440" width="120" height="30" as="geometry" />
        </mxCell>
        <mxCell id="VvI8yXbkPYTi_8kJMqFg-41" value="zuul" style="rounded=1;whiteSpace=wrap;html=1;align=center;" parent="1" vertex="1">
          <mxGeometry x="1870" y="220" width="80" height="40" as="geometry" />
        </mxCell>
        <mxCell id="VvI8yXbkPYTi_8kJMqFg-42" value="A机房" style="text;html=1;strokeColor=none;fillColor=none;align=center;verticalAlign=middle;whiteSpace=wrap;rounded=0;" parent="1" vertex="1">
          <mxGeometry x="970" y="10" width="40" height="20" as="geometry" />
        </mxCell>
        <mxCell id="VvI8yXbkPYTi_8kJMqFg-43" value="B机房" style="text;html=1;strokeColor=none;fillColor=none;align=center;verticalAlign=middle;whiteSpace=wrap;rounded=0;" parent="1" vertex="1">
          <mxGeometry x="1080" y="10" width="40" height="20" as="geometry" />
        </mxCell>
        <mxCell id="VvI8yXbkPYTi_8kJMqFg-44" style="edgeStyle=orthogonalEdgeStyle;rounded=0;orthogonalLoop=1;jettySize=auto;html=1;entryX=0.5;entryY=0;entryDx=0;entryDy=0;" parent="1" source="VvI8yXbkPYTi_8kJMqFg-46" target="VvI8yXbkPYTi_8kJMqFg-38" edge="1">
          <mxGeometry relative="1" as="geometry">
            <Array as="points">
              <mxPoint x="915" y="340" />
            </Array>
          </mxGeometry>
        </mxCell>
        <mxCell id="VvI8yXbkPYTi_8kJMqFg-45" style="edgeStyle=orthogonalEdgeStyle;rounded=0;orthogonalLoop=1;jettySize=auto;html=1;entryX=0.5;entryY=0;entryDx=0;entryDy=0;" parent="1" source="VvI8yXbkPYTi_8kJMqFg-46" target="VvI8yXbkPYTi_8kJMqFg-31" edge="1">
          <mxGeometry relative="1" as="geometry">
            <Array as="points">
              <mxPoint x="705" y="340" />
            </Array>
          </mxGeometry>
        </mxCell>
        <mxCell id="VvI8yXbkPYTi_8kJMqFg-46" value="VIP" style="rounded=1;whiteSpace=wrap;html=1;align=center;" parent="1" vertex="1">
          <mxGeometry x="780" y="330" width="60" height="20" as="geometry" />
        </mxCell>
        <mxCell id="wdB7McpbQnSKonyvfbZ4-1" style="edgeStyle=orthogonalEdgeStyle;rounded=0;orthogonalLoop=1;jettySize=auto;html=1;exitX=0.5;exitY=1;exitDx=0;exitDy=0;" edge="1" parent="1" source="VvI8yXbkPYTi_8kJMqFg-47" target="VvI8yXbkPYTi_8kJMqFg-25">
          <mxGeometry relative="1" as="geometry" />
        </mxCell>
        <mxCell id="wdB7McpbQnSKonyvfbZ4-5" value="主" style="edgeLabel;html=1;align=center;verticalAlign=middle;resizable=0;points=[];" vertex="1" connectable="0" parent="wdB7McpbQnSKonyvfbZ4-1">
          <mxGeometry x="-0.2889" y="1" relative="1" as="geometry">
            <mxPoint as="offset" />
          </mxGeometry>
        </mxCell>
        <mxCell id="wdB7McpbQnSKonyvfbZ4-2" style="rounded=0;orthogonalLoop=1;jettySize=auto;html=1;exitX=0.5;exitY=1;exitDx=0;exitDy=0;dashed=1;entryX=0.5;entryY=0;entryDx=0;entryDy=0;" edge="1" parent="1" source="VvI8yXbkPYTi_8kJMqFg-47" target="VvI8yXbkPYTi_8kJMqFg-56">
          <mxGeometry relative="1" as="geometry" />
        </mxCell>
        <mxCell id="wdB7McpbQnSKonyvfbZ4-7" value="从" style="edgeLabel;html=1;align=center;verticalAlign=middle;resizable=0;points=[];" vertex="1" connectable="0" parent="wdB7McpbQnSKonyvfbZ4-2">
          <mxGeometry x="-0.4874" y="-2" relative="1" as="geometry">
            <mxPoint as="offset" />
          </mxGeometry>
        </mxCell>
        <mxCell id="VvI8yXbkPYTi_8kJMqFg-47" value="" style="rounded=0;whiteSpace=wrap;html=1;align=left;" parent="1" vertex="1">
          <mxGeometry x="1080" y="380" width="170" height="100" as="geometry" />
        </mxCell>
        <mxCell id="VvI8yXbkPYTi_8kJMqFg-48" value="Keepalived&amp;nbsp;主" style="rounded=1;whiteSpace=wrap;html=1;align=center;" parent="1" vertex="1">
          <mxGeometry x="1105" y="390" width="120" height="30" as="geometry" />
        </mxCell>
        <mxCell id="VvI8yXbkPYTi_8kJMqFg-49" value="HAproxy&amp;nbsp;主" style="rounded=1;whiteSpace=wrap;html=1;align=center;" parent="1" vertex="1">
          <mxGeometry x="1105" y="440" width="120" height="30" as="geometry" />
        </mxCell>
        <mxCell id="wdB7McpbQnSKonyvfbZ4-3" style="edgeStyle=none;rounded=0;orthogonalLoop=1;jettySize=auto;html=1;exitX=0.5;exitY=1;exitDx=0;exitDy=0;" edge="1" parent="1" source="VvI8yXbkPYTi_8kJMqFg-50">
          <mxGeometry relative="1" as="geometry">
            <mxPoint x="1375" y="570" as="targetPoint" />
          </mxGeometry>
        </mxCell>
        <mxCell id="wdB7McpbQnSKonyvfbZ4-6" value="主" style="edgeLabel;html=1;align=center;verticalAlign=middle;resizable=0;points=[];" vertex="1" connectable="0" parent="wdB7McpbQnSKonyvfbZ4-3">
          <mxGeometry x="-0.3111" relative="1" as="geometry">
            <mxPoint as="offset" />
          </mxGeometry>
        </mxCell>
        <mxCell id="wdB7McpbQnSKonyvfbZ4-4" style="edgeStyle=none;rounded=0;orthogonalLoop=1;jettySize=auto;html=1;exitX=0.5;exitY=1;exitDx=0;exitDy=0;entryX=0.5;entryY=0;entryDx=0;entryDy=0;dashed=1;" edge="1" parent="1" source="VvI8yXbkPYTi_8kJMqFg-50" target="VvI8yXbkPYTi_8kJMqFg-25">
          <mxGeometry relative="1" as="geometry" />
        </mxCell>
        <mxCell id="wdB7McpbQnSKonyvfbZ4-8" value="从" style="edgeLabel;html=1;align=center;verticalAlign=middle;resizable=0;points=[];" vertex="1" connectable="0" parent="wdB7McpbQnSKonyvfbZ4-4">
          <mxGeometry x="-0.4517" y="1" relative="1" as="geometry">
            <mxPoint x="1" as="offset" />
          </mxGeometry>
        </mxCell>
        <mxCell id="VvI8yXbkPYTi_8kJMqFg-50" value="" style="rounded=0;whiteSpace=wrap;html=1;align=left;" parent="1" vertex="1">
          <mxGeometry x="1290" y="380" width="170" height="100" as="geometry" />
        </mxCell>
        <mxCell id="VvI8yXbkPYTi_8kJMqFg-51" value="Keepalived&amp;nbsp;备" style="rounded=1;whiteSpace=wrap;html=1;align=center;" parent="1" vertex="1">
          <mxGeometry x="1315" y="390" width="120" height="30" as="geometry" />
        </mxCell>
        <mxCell id="VvI8yXbkPYTi_8kJMqFg-52" value="HAproxy&amp;nbsp;备" style="rounded=1;whiteSpace=wrap;html=1;align=center;" parent="1" vertex="1">
          <mxGeometry x="1315" y="440" width="120" height="30" as="geometry" />
        </mxCell>
        <mxCell id="VvI8yXbkPYTi_8kJMqFg-53" style="edgeStyle=orthogonalEdgeStyle;rounded=0;orthogonalLoop=1;jettySize=auto;html=1;entryX=0.5;entryY=0;entryDx=0;entryDy=0;" parent="1" source="VvI8yXbkPYTi_8kJMqFg-55" target="VvI8yXbkPYTi_8kJMqFg-50" edge="1">
          <mxGeometry relative="1" as="geometry">
            <Array as="points">
              <mxPoint x="1375" y="340" />
            </Array>
          </mxGeometry>
        </mxCell>
        <mxCell id="VvI8yXbkPYTi_8kJMqFg-54" style="edgeStyle=orthogonalEdgeStyle;rounded=0;orthogonalLoop=1;jettySize=auto;html=1;entryX=0.5;entryY=0;entryDx=0;entryDy=0;" parent="1" source="VvI8yXbkPYTi_8kJMqFg-55" target="VvI8yXbkPYTi_8kJMqFg-47" edge="1">
          <mxGeometry relative="1" as="geometry">
            <Array as="points">
              <mxPoint x="1165" y="340" />
            </Array>
          </mxGeometry>
        </mxCell>
        <mxCell id="VvI8yXbkPYTi_8kJMqFg-55" value="VIP" style="rounded=1;whiteSpace=wrap;html=1;align=center;" parent="1" vertex="1">
          <mxGeometry x="1240" y="330" width="60" height="20" as="geometry" />
        </mxCell>
        <mxCell id="wdB7McpbQnSKonyvfbZ4-18" style="edgeStyle=none;rounded=0;orthogonalLoop=1;jettySize=auto;html=1;exitX=0.5;exitY=1;exitDx=0;exitDy=0;entryX=0.5;entryY=0;entryDx=0;entryDy=0;" edge="1" parent="1" source="VvI8yXbkPYTi_8kJMqFg-56" target="VvI8yXbkPYTi_8kJMqFg-92">
          <mxGeometry relative="1" as="geometry" />
        </mxCell>
        <mxCell id="VvI8yXbkPYTi_8kJMqFg-56" value="支付网关微服务" style="rounded=1;whiteSpace=wrap;html=1;align=center;" parent="1" vertex="1">
          <mxGeometry x="1330" y="570" width="90" height="40" as="geometry" />
        </mxCell>
        <mxCell id="VvI8yXbkPYTi_8kJMqFg-57" value="MGR" style="rounded=1;whiteSpace=wrap;html=1;align=left;" parent="1" vertex="1">
          <mxGeometry x="560" y="1030" width="940" height="60" as="geometry" />
        </mxCell>
        <mxCell id="VvI8yXbkPYTi_8kJMqFg-58" value="MySQL主" style="rounded=1;whiteSpace=wrap;html=1;align=center;" parent="1" vertex="1">
          <mxGeometry x="660" y="1040" width="90" height="40" as="geometry" />
        </mxCell>
        <mxCell id="VvI8yXbkPYTi_8kJMqFg-59" value="MySQL主" style="rounded=1;whiteSpace=wrap;html=1;align=center;" parent="1" vertex="1">
          <mxGeometry x="870" y="1040" width="90" height="40" as="geometry" />
        </mxCell>
        <mxCell id="VvI8yXbkPYTi_8kJMqFg-61" value="MySQL主" style="rounded=1;whiteSpace=wrap;html=1;align=center;" parent="1" vertex="1">
          <mxGeometry x="1230" y="1040" width="90" height="40" as="geometry" />
        </mxCell>
        <mxCell id="VvI8yXbkPYTi_8kJMqFg-62" value="MyCat" style="rounded=1;whiteSpace=wrap;html=1;align=left;" parent="1" vertex="1">
          <mxGeometry x="560" y="850" width="940" height="60" as="geometry" />
        </mxCell>
        <mxCell id="wdB7McpbQnSKonyvfbZ4-19" style="edgeStyle=none;rounded=0;orthogonalLoop=1;jettySize=auto;html=1;exitX=0.5;exitY=1;exitDx=0;exitDy=0;entryX=0.5;entryY=0;entryDx=0;entryDy=0;" edge="1" parent="1" source="VvI8yXbkPYTi_8kJMqFg-63" target="VvI8yXbkPYTi_8kJMqFg-58">
          <mxGeometry relative="1" as="geometry" />
        </mxCell>
        <mxCell id="wdB7McpbQnSKonyvfbZ4-20" style="edgeStyle=none;rounded=0;orthogonalLoop=1;jettySize=auto;html=1;exitX=0.5;exitY=1;exitDx=0;exitDy=0;entryX=0.5;entryY=0;entryDx=0;entryDy=0;dashed=1;" edge="1" parent="1" source="VvI8yXbkPYTi_8kJMqFg-63" target="VvI8yXbkPYTi_8kJMqFg-59">
          <mxGeometry relative="1" as="geometry" />
        </mxCell>
        <mxCell id="VvI8yXbkPYTi_8kJMqFg-63" value="MyCat&amp;nbsp;主" style="rounded=1;whiteSpace=wrap;html=1;align=center;" parent="1" vertex="1">
          <mxGeometry x="660" y="860" width="90" height="40" as="geometry" />
        </mxCell>
        <mxCell id="wdB7McpbQnSKonyvfbZ4-21" style="edgeStyle=none;rounded=0;orthogonalLoop=1;jettySize=auto;html=1;exitX=0.5;exitY=1;exitDx=0;exitDy=0;entryX=0.5;entryY=0;entryDx=0;entryDy=0;" edge="1" parent="1" source="VvI8yXbkPYTi_8kJMqFg-64" target="VvI8yXbkPYTi_8kJMqFg-59">
          <mxGeometry relative="1" as="geometry" />
        </mxCell>
        <mxCell id="wdB7McpbQnSKonyvfbZ4-22" style="edgeStyle=none;rounded=0;orthogonalLoop=1;jettySize=auto;html=1;exitX=0.5;exitY=1;exitDx=0;exitDy=0;entryX=0.5;entryY=0;entryDx=0;entryDy=0;dashed=1;" edge="1" parent="1" source="VvI8yXbkPYTi_8kJMqFg-64" target="VvI8yXbkPYTi_8kJMqFg-58">
          <mxGeometry relative="1" as="geometry" />
        </mxCell>
        <mxCell id="VvI8yXbkPYTi_8kJMqFg-64" value="MyCat 从" style="rounded=1;whiteSpace=wrap;html=1;align=center;" parent="1" vertex="1">
          <mxGeometry x="870" y="860" width="90" height="40" as="geometry" />
        </mxCell>
        <mxCell id="wdB7McpbQnSKonyvfbZ4-23" style="edgeStyle=none;rounded=0;orthogonalLoop=1;jettySize=auto;html=1;exitX=0.5;exitY=1;exitDx=0;exitDy=0;entryX=0.5;entryY=0;entryDx=0;entryDy=0;" edge="1" parent="1" source="VvI8yXbkPYTi_8kJMqFg-65" target="VvI8yXbkPYTi_8kJMqFg-61">
          <mxGeometry relative="1" as="geometry" />
        </mxCell>
        <mxCell id="VvI8yXbkPYTi_8kJMqFg-65" value="MyCat 主" style="rounded=1;whiteSpace=wrap;html=1;align=center;" parent="1" vertex="1">
          <mxGeometry x="1120" y="860" width="90" height="40" as="geometry" />
        </mxCell>
        <mxCell id="wdB7McpbQnSKonyvfbZ4-24" style="edgeStyle=none;rounded=0;orthogonalLoop=1;jettySize=auto;html=1;exitX=0.5;exitY=1;exitDx=0;exitDy=0;entryX=0.5;entryY=0;entryDx=0;entryDy=0;" edge="1" parent="1" source="VvI8yXbkPYTi_8kJMqFg-66" target="VvI8yXbkPYTi_8kJMqFg-61">
          <mxGeometry relative="1" as="geometry" />
        </mxCell>
        <mxCell id="VvI8yXbkPYTi_8kJMqFg-66" value="MyCat&amp;nbsp;从" style="rounded=1;whiteSpace=wrap;html=1;align=center;" parent="1" vertex="1">
          <mxGeometry x="1330" y="860" width="90" height="40" as="geometry" />
        </mxCell>
        <mxCell id="VvI8yXbkPYTi_8kJMqFg-67" value="" style="endArrow=none;dashed=1;html=1;" parent="1" edge="1">
          <mxGeometry width="50" height="50" relative="1" as="geometry">
            <mxPoint x="1040" y="1340" as="sourcePoint" />
            <mxPoint x="1040" as="targetPoint" />
          </mxGeometry>
        </mxCell>
        <mxCell id="VvI8yXbkPYTi_8kJMqFg-68" style="edgeStyle=none;rounded=0;orthogonalLoop=1;jettySize=auto;html=1;exitX=0.5;exitY=1;exitDx=0;exitDy=0;entryX=0.5;entryY=0;entryDx=0;entryDy=0;" parent="1" source="VvI8yXbkPYTi_8kJMqFg-72" target="VvI8yXbkPYTi_8kJMqFg-63" edge="1" treatAsSingle="0">
          <mxGeometry relative="1" as="geometry" />
        </mxCell>
        <mxCell id="wdB7McpbQnSKonyvfbZ4-9" value="主" style="edgeLabel;html=1;align=center;verticalAlign=middle;resizable=0;points=[];" vertex="1" connectable="0" parent="VvI8yXbkPYTi_8kJMqFg-68">
          <mxGeometry x="-0.275" y="-1" relative="1" as="geometry">
            <mxPoint as="offset" />
          </mxGeometry>
        </mxCell>
        <mxCell id="VvI8yXbkPYTi_8kJMqFg-70" style="edgeStyle=none;rounded=0;orthogonalLoop=1;jettySize=auto;html=1;exitX=0.5;exitY=1;exitDx=0;exitDy=0;entryX=0.5;entryY=0;entryDx=0;entryDy=0;dashed=1;" parent="1" source="VvI8yXbkPYTi_8kJMqFg-72" target="VvI8yXbkPYTi_8kJMqFg-64" edge="1" treatAsSingle="0">
          <mxGeometry relative="1" as="geometry" />
        </mxCell>
        <mxCell id="VvI8yXbkPYTi_8kJMqFg-71" value="从" style="edgeLabel;html=1;align=center;verticalAlign=middle;resizable=0;points=[];" parent="VvI8yXbkPYTi_8kJMqFg-70" vertex="1" connectable="0">
          <mxGeometry x="-0.335" relative="1" as="geometry">
            <mxPoint as="offset" />
          </mxGeometry>
        </mxCell>
        <mxCell id="VvI8yXbkPYTi_8kJMqFg-72" value="" style="rounded=0;whiteSpace=wrap;html=1;align=left;" parent="1" vertex="1">
          <mxGeometry x="620" y="730" width="170" height="50" as="geometry" />
        </mxCell>
        <mxCell id="VvI8yXbkPYTi_8kJMqFg-73" value="Keepalived&amp;nbsp;主" style="rounded=1;whiteSpace=wrap;html=1;align=center;" parent="1" vertex="1">
          <mxGeometry x="645" y="740" width="120" height="30" as="geometry" />
        </mxCell>
        <mxCell id="VvI8yXbkPYTi_8kJMqFg-74" style="edgeStyle=none;rounded=0;orthogonalLoop=1;jettySize=auto;html=1;exitX=0.5;exitY=1;exitDx=0;exitDy=0;entryX=0.5;entryY=0;entryDx=0;entryDy=0;dashed=1;" parent="1" source="VvI8yXbkPYTi_8kJMqFg-77" target="VvI8yXbkPYTi_8kJMqFg-63" edge="1">
          <mxGeometry relative="1" as="geometry" />
        </mxCell>
        <mxCell id="wdB7McpbQnSKonyvfbZ4-10" value="从" style="edgeLabel;html=1;align=center;verticalAlign=middle;resizable=0;points=[];" vertex="1" connectable="0" parent="VvI8yXbkPYTi_8kJMqFg-74">
          <mxGeometry x="-0.3438" relative="1" as="geometry">
            <mxPoint as="offset" />
          </mxGeometry>
        </mxCell>
        <mxCell id="VvI8yXbkPYTi_8kJMqFg-75" style="edgeStyle=none;rounded=0;orthogonalLoop=1;jettySize=auto;html=1;exitX=0.5;exitY=1;exitDx=0;exitDy=0;entryX=0.5;entryY=0;entryDx=0;entryDy=0;" parent="1" source="VvI8yXbkPYTi_8kJMqFg-77" target="VvI8yXbkPYTi_8kJMqFg-64" edge="1" treatAsSingle="0">
          <mxGeometry relative="1" as="geometry" />
        </mxCell>
        <mxCell id="VvI8yXbkPYTi_8kJMqFg-76" value="主" style="edgeLabel;html=1;align=center;verticalAlign=middle;resizable=0;points=[];" parent="VvI8yXbkPYTi_8kJMqFg-75" vertex="1" connectable="0">
          <mxGeometry x="-0.24" y="1" relative="1" as="geometry">
            <mxPoint as="offset" />
          </mxGeometry>
        </mxCell>
        <mxCell id="VvI8yXbkPYTi_8kJMqFg-77" value="" style="rounded=0;whiteSpace=wrap;html=1;align=left;" parent="1" vertex="1">
          <mxGeometry x="830" y="730" width="170" height="50" as="geometry" />
        </mxCell>
        <mxCell id="VvI8yXbkPYTi_8kJMqFg-78" value="Keepalived&amp;nbsp;备" style="rounded=1;whiteSpace=wrap;html=1;align=center;" parent="1" vertex="1">
          <mxGeometry x="855" y="740" width="120" height="30" as="geometry" />
        </mxCell>
        <mxCell id="VvI8yXbkPYTi_8kJMqFg-79" style="edgeStyle=orthogonalEdgeStyle;rounded=0;orthogonalLoop=1;jettySize=auto;html=1;entryX=0.5;entryY=0;entryDx=0;entryDy=0;" parent="1" source="VvI8yXbkPYTi_8kJMqFg-81" target="VvI8yXbkPYTi_8kJMqFg-77" edge="1">
          <mxGeometry relative="1" as="geometry">
            <Array as="points">
              <mxPoint x="915" y="690" />
            </Array>
          </mxGeometry>
        </mxCell>
        <mxCell id="VvI8yXbkPYTi_8kJMqFg-80" style="edgeStyle=orthogonalEdgeStyle;rounded=0;orthogonalLoop=1;jettySize=auto;html=1;entryX=0.5;entryY=0;entryDx=0;entryDy=0;" parent="1" source="VvI8yXbkPYTi_8kJMqFg-81" target="VvI8yXbkPYTi_8kJMqFg-72" edge="1">
          <mxGeometry relative="1" as="geometry">
            <Array as="points">
              <mxPoint x="705" y="690" />
            </Array>
          </mxGeometry>
        </mxCell>
        <mxCell id="VvI8yXbkPYTi_8kJMqFg-81" value="VIP" style="rounded=1;whiteSpace=wrap;html=1;align=center;" parent="1" vertex="1">
          <mxGeometry x="780" y="680" width="60" height="20" as="geometry" />
        </mxCell>
        <mxCell id="VvI8yXbkPYTi_8kJMqFg-82" style="edgeStyle=none;rounded=0;orthogonalLoop=1;jettySize=auto;html=1;exitX=0.5;exitY=1;exitDx=0;exitDy=0;entryX=0.5;entryY=0;entryDx=0;entryDy=0;" parent="1" source="VvI8yXbkPYTi_8kJMqFg-84" target="VvI8yXbkPYTi_8kJMqFg-65" edge="1">
          <mxGeometry relative="1" as="geometry" />
        </mxCell>
        <mxCell id="wdB7McpbQnSKonyvfbZ4-11" value="主" style="edgeLabel;html=1;align=center;verticalAlign=middle;resizable=0;points=[];" vertex="1" connectable="0" parent="VvI8yXbkPYTi_8kJMqFg-82">
          <mxGeometry x="-0.325" y="-1" relative="1" as="geometry">
            <mxPoint as="offset" />
          </mxGeometry>
        </mxCell>
        <mxCell id="VvI8yXbkPYTi_8kJMqFg-83" style="edgeStyle=none;rounded=0;orthogonalLoop=1;jettySize=auto;html=1;exitX=0.5;exitY=1;exitDx=0;exitDy=0;entryX=0.5;entryY=0;entryDx=0;entryDy=0;dashed=1;" parent="1" source="VvI8yXbkPYTi_8kJMqFg-84" target="VvI8yXbkPYTi_8kJMqFg-66" edge="1">
          <mxGeometry relative="1" as="geometry" />
        </mxCell>
        <mxCell id="wdB7McpbQnSKonyvfbZ4-13" value="从" style="edgeLabel;html=1;align=center;verticalAlign=middle;resizable=0;points=[];" vertex="1" connectable="0" parent="VvI8yXbkPYTi_8kJMqFg-83">
          <mxGeometry x="-0.4812" y="-1" relative="1" as="geometry">
            <mxPoint as="offset" />
          </mxGeometry>
        </mxCell>
        <mxCell id="VvI8yXbkPYTi_8kJMqFg-84" value="" style="rounded=0;whiteSpace=wrap;html=1;align=left;" parent="1" vertex="1">
          <mxGeometry x="1080" y="730" width="170" height="50" as="geometry" />
        </mxCell>
        <mxCell id="VvI8yXbkPYTi_8kJMqFg-85" value="Keepalived&amp;nbsp;主" style="rounded=1;whiteSpace=wrap;html=1;align=center;" parent="1" vertex="1">
          <mxGeometry x="1105" y="740" width="120" height="30" as="geometry" />
        </mxCell>
        <mxCell id="VvI8yXbkPYTi_8kJMqFg-86" style="edgeStyle=none;rounded=0;orthogonalLoop=1;jettySize=auto;html=1;exitX=0.5;exitY=1;exitDx=0;exitDy=0;entryX=0.5;entryY=0;entryDx=0;entryDy=0;dashed=1;" parent="1" source="VvI8yXbkPYTi_8kJMqFg-88" target="VvI8yXbkPYTi_8kJMqFg-65" edge="1">
          <mxGeometry relative="1" as="geometry" />
        </mxCell>
        <mxCell id="wdB7McpbQnSKonyvfbZ4-14" value="从" style="edgeLabel;html=1;align=center;verticalAlign=middle;resizable=0;points=[];" vertex="1" connectable="0" parent="VvI8yXbkPYTi_8kJMqFg-86">
          <mxGeometry x="-0.5113" y="4" relative="1" as="geometry">
            <mxPoint as="offset" />
          </mxGeometry>
        </mxCell>
        <mxCell id="VvI8yXbkPYTi_8kJMqFg-87" style="edgeStyle=none;rounded=0;orthogonalLoop=1;jettySize=auto;html=1;exitX=0.5;exitY=1;exitDx=0;exitDy=0;entryX=0.5;entryY=0;entryDx=0;entryDy=0;" parent="1" source="VvI8yXbkPYTi_8kJMqFg-88" target="VvI8yXbkPYTi_8kJMqFg-66" edge="1">
          <mxGeometry relative="1" as="geometry" />
        </mxCell>
        <mxCell id="wdB7McpbQnSKonyvfbZ4-12" value="主" style="edgeLabel;html=1;align=center;verticalAlign=middle;resizable=0;points=[];" vertex="1" connectable="0" parent="VvI8yXbkPYTi_8kJMqFg-87">
          <mxGeometry x="-0.4" y="-1" relative="1" as="geometry">
            <mxPoint as="offset" />
          </mxGeometry>
        </mxCell>
        <mxCell id="VvI8yXbkPYTi_8kJMqFg-88" value="" style="rounded=0;whiteSpace=wrap;html=1;align=left;" parent="1" vertex="1">
          <mxGeometry x="1290" y="730" width="170" height="50" as="geometry" />
        </mxCell>
        <mxCell id="VvI8yXbkPYTi_8kJMqFg-89" value="Keepalived&amp;nbsp;备" style="rounded=1;whiteSpace=wrap;html=1;align=center;" parent="1" vertex="1">
          <mxGeometry x="1315" y="740" width="120" height="30" as="geometry" />
        </mxCell>
        <mxCell id="VvI8yXbkPYTi_8kJMqFg-90" style="edgeStyle=orthogonalEdgeStyle;rounded=0;orthogonalLoop=1;jettySize=auto;html=1;entryX=0.5;entryY=0;entryDx=0;entryDy=0;" parent="1" source="VvI8yXbkPYTi_8kJMqFg-92" target="VvI8yXbkPYTi_8kJMqFg-88" edge="1">
          <mxGeometry relative="1" as="geometry">
            <Array as="points">
              <mxPoint x="1375" y="690" />
            </Array>
          </mxGeometry>
        </mxCell>
        <mxCell id="VvI8yXbkPYTi_8kJMqFg-91" style="edgeStyle=orthogonalEdgeStyle;rounded=0;orthogonalLoop=1;jettySize=auto;html=1;entryX=0.5;entryY=0;entryDx=0;entryDy=0;" parent="1" source="VvI8yXbkPYTi_8kJMqFg-92" target="VvI8yXbkPYTi_8kJMqFg-84" edge="1">
          <mxGeometry relative="1" as="geometry">
            <Array as="points">
              <mxPoint x="1165" y="690" />
            </Array>
          </mxGeometry>
        </mxCell>
        <mxCell id="VvI8yXbkPYTi_8kJMqFg-92" value="VIP" style="rounded=1;whiteSpace=wrap;html=1;align=center;" parent="1" vertex="1">
          <mxGeometry x="1240" y="680" width="60" height="20" as="geometry" />
        </mxCell>
        <mxCell id="wdB7McpbQnSKonyvfbZ4-25" value="MySQL&amp;nbsp; Tips：&lt;br&gt;1. MySQL支持双写。&lt;br&gt;&lt;div&gt;&lt;span&gt;2.&amp;nbsp;MyCat 主通过负载均衡将请求均匀分发给多个MySQL&amp;nbsp;主。&lt;/span&gt;&lt;/div&gt;" style="text;html=1;strokeColor=none;fillColor=none;align=left;verticalAlign=middle;whiteSpace=wrap;rounded=0;" vertex="1" parent="1">
          <mxGeometry x="290" y="1015" width="250" height="90" as="geometry" />
        </mxCell>
        <mxCell id="wdB7McpbQnSKonyvfbZ4-26" value="MyCat&amp;nbsp; Tips：&lt;br&gt;1.&amp;nbsp;MyCat主、从都参加运行，将请求均匀分发给多主数据库" style="text;html=1;strokeColor=none;fillColor=none;align=left;verticalAlign=middle;whiteSpace=wrap;rounded=0;" vertex="1" parent="1">
          <mxGeometry x="290" y="835" width="250" height="90" as="geometry" />
        </mxCell>
        <mxCell id="wdB7McpbQnSKonyvfbZ4-28" value="Redis Cluster" style="rounded=1;whiteSpace=wrap;html=1;" vertex="1" parent="1">
          <mxGeometry x="1790" y="565" width="120" height="60" as="geometry" />
        </mxCell>
        <mxCell id="wdB7McpbQnSKonyvfbZ4-29" value="Redis Cluster" style="rounded=1;whiteSpace=wrap;html=1;" vertex="1" parent="1">
          <mxGeometry x="1940" y="565" width="120" height="60" as="geometry" />
        </mxCell>
        <mxCell id="wdB7McpbQnSKonyvfbZ4-30" value="Redis Cluster" style="rounded=1;whiteSpace=wrap;html=1;" vertex="1" parent="1">
          <mxGeometry x="2090" y="565" width="120" height="60" as="geometry" />
        </mxCell>
        <mxCell id="wdB7McpbQnSKonyvfbZ4-33" value="Redis&amp;nbsp; Tips：&lt;br&gt;1.&amp;nbsp;存储业务线appKey和appSign。&lt;br&gt;2.&amp;nbsp;存储配置信息&lt;br&gt;3.&amp;nbsp;自动续费--签约信息" style="text;html=1;strokeColor=none;fillColor=none;align=left;verticalAlign=middle;whiteSpace=wrap;rounded=0;" vertex="1" parent="1">
          <mxGeometry x="2270" y="545" width="250" height="90" as="geometry" />
        </mxCell>
        <mxCell id="wdB7McpbQnSKonyvfbZ4-35" value="" style="endArrow=none;dashed=1;html=1;" edge="1" parent="1">
          <mxGeometry width="50" height="50" relative="1" as="geometry">
            <mxPoint x="1540" y="1130" as="sourcePoint" />
            <mxPoint x="1540" as="targetPoint" />
          </mxGeometry>
        </mxCell>
        <mxCell id="wdB7McpbQnSKonyvfbZ4-37" value="基础功能" style="text;html=1;strokeColor=none;fillColor=none;align=center;verticalAlign=middle;whiteSpace=wrap;rounded=0;" vertex="1" parent="1">
          <mxGeometry x="1550" y="10" width="60" height="10" as="geometry" />
        </mxCell>
        <mxCell id="wdB7McpbQnSKonyvfbZ4-38" value="雷点微服务" style="rounded=1;whiteSpace=wrap;html=1;align=center;" vertex="1" parent="1">
          <mxGeometry x="1975" y="1105" width="90" height="40" as="geometry" />
        </mxCell>
        <mxCell id="wdB7McpbQnSKonyvfbZ4-39" value="RocketMQ" style="rounded=1;whiteSpace=wrap;html=1;" vertex="1" parent="1">
          <mxGeometry x="1585" y="910" width="410" height="40" as="geometry" />
        </mxCell>
        <mxCell id="wdB7McpbQnSKonyvfbZ4-40" value="RocketMQ作用 &amp;nbsp;Tips：&lt;br&gt;* 当掉单后，重新推送支付成功消息给业务线&lt;br&gt;* 当支付流程完成后，推送支付结果给业务线，支付结果可能是支付成功、支付不成功（银行卡余额不足）&lt;br&gt;" style="text;html=1;strokeColor=none;fillColor=none;align=left;verticalAlign=middle;whiteSpace=wrap;rounded=0;" vertex="1" parent="1">
          <mxGeometry x="2080" y="645" width="250" height="90" as="geometry" />
        </mxCell>
        <mxCell id="wdB7McpbQnSKonyvfbZ4-44" value="1" style="edgeStyle=none;rounded=0;orthogonalLoop=1;jettySize=auto;html=1;exitX=0.5;exitY=1;exitDx=0;exitDy=0;" edge="1" parent="1" source="wdB7McpbQnSKonyvfbZ4-42" target="wdB7McpbQnSKonyvfbZ4-43">
          <mxGeometry relative="1" as="geometry" />
        </mxCell>
        <mxCell id="wdB7McpbQnSKonyvfbZ4-45" value="2" style="edgeStyle=none;rounded=0;orthogonalLoop=1;jettySize=auto;html=1;entryX=0.11;entryY=0.975;entryDx=0;entryDy=0;entryPerimeter=0;" edge="1" parent="1" source="wdB7McpbQnSKonyvfbZ4-42" target="wdB7McpbQnSKonyvfbZ4-39">
          <mxGeometry relative="1" as="geometry" />
        </mxCell>
        <mxCell id="wdB7McpbQnSKonyvfbZ4-42" value="支付网关微服务" style="rounded=1;whiteSpace=wrap;html=1;align=center;" vertex="1" parent="1">
          <mxGeometry x="1585" y="1015" width="90" height="40" as="geometry" />
        </mxCell>
        <mxCell id="wdB7McpbQnSKonyvfbZ4-43" value="DB" style="shape=cylinder;whiteSpace=wrap;html=1;boundedLbl=1;backgroundOutline=1;" vertex="1" parent="1">
          <mxGeometry x="1600" y="1120" width="60" height="80" as="geometry" />
        </mxCell>
        <mxCell id="wdB7McpbQnSKonyvfbZ4-46" value="RocketMQ &amp;nbsp;Tips：&lt;br&gt;1.&amp;nbsp;当掉单后，重新推送支付成功消息给业务线&lt;br&gt;2.&amp;nbsp;当支付流程完成后，推送消息给业务线&lt;br&gt;3.&amp;nbsp;雷点的分布式事务一致性" style="text;html=1;strokeColor=none;fillColor=none;align=left;verticalAlign=middle;whiteSpace=wrap;rounded=0;" vertex="1" parent="1">
          <mxGeometry x="2130" y="1010" width="250" height="90" as="geometry" />
        </mxCell>
        <mxCell id="wdB7McpbQnSKonyvfbZ4-50" style="edgeStyle=none;rounded=0;orthogonalLoop=1;jettySize=auto;html=1;exitX=0.25;exitY=0;exitDx=0;exitDy=0;dashed=1;dashPattern=1 2;entryX=1;entryY=0.5;entryDx=0;entryDy=0;" edge="1" parent="1" source="wdB7McpbQnSKonyvfbZ4-47" target="wdB7McpbQnSKonyvfbZ4-52">
          <mxGeometry relative="1" as="geometry">
            <mxPoint x="1490" y="180" as="targetPoint" />
          </mxGeometry>
        </mxCell>
        <mxCell id="wdB7McpbQnSKonyvfbZ4-54" value="消息队列通知支付结果" style="edgeLabel;html=1;align=center;verticalAlign=middle;resizable=0;points=[];" vertex="1" connectable="0" parent="wdB7McpbQnSKonyvfbZ4-50">
          <mxGeometry x="-0.5244" y="-1" relative="1" as="geometry">
            <mxPoint as="offset" />
          </mxGeometry>
        </mxCell>
        <mxCell id="wdB7McpbQnSKonyvfbZ4-47" value="RocketMQ" style="rounded=1;whiteSpace=wrap;html=1;" vertex="1" parent="1">
          <mxGeometry x="1580" y="670" width="470" height="40" as="geometry" />
        </mxCell>
      </root>
    </mxGraphModel>
  </diagram>
</mxfile>
